<?xml version="1.0" standalone="yes"?>
<svg xmlns="http://www.w3.org/2000/svg" width="1284" height="324">
<path style="fill:#ffffff; stroke:none;" d="M0 0L0 324L1284 324L1284 0L0 0z"/>
<path style="fill:#010101; stroke:none;" d="M64 85L64 211L195 211L195 85L64 85M224 113L224 214L939 214L1157 214L1224 214L1257 213L1257 211C1244.95 205.621 1248 195.883 1248 184L1248 113L224 113z"/>
<path style="fill:#4b4b4b; stroke:none;" d="M124 131L125 132L124 131z"/>
<path style="fill:#a2a2a2; stroke:none;" d="M125.667 131.333L126.333 131.667L125.667 131.333z"/>
<path style="fill:#6c6c6c; stroke:none;" d="M127 131L127 132L131 132L127 131z"/>
<path style="fill:#a2a2a2; stroke:none;" d="M131.667 131.333L132.333 131.667L131.667 131.333z"/>
<path style="fill:#6c6c6c; stroke:none;" d="M133 131L134 132L133 131z"/>
<path style="fill:#ffffff; stroke:none;" d="M110 145L110 146L116 146C110.56 154.887 87.6286 185.724 111 186L111 185C102.554 183.617 107.653 175.906 110.424 171C116.373 160.47 120.552 146.01 134 146L134 145L126 145L133 132C120.911 132.009 121.204 144.635 110 145z"/>
<path style="fill:#a2a2a2; stroke:none;" d="M154.667 132.333L155.333 132.667L154.667 132.333z"/>
<path style="fill:#6c6c6c; stroke:none;" d="M156 132L157 133L156 132z"/>
<path style="fill:#a2a2a2; stroke:none;" d="M123 133L124 134L123 133z"/>
<path style="fill:#6c6c6c; stroke:none;" d="M132 133L133 134L132 133z"/>
<path style="fill:#4b4b4b; stroke:none;" d="M152 133L151 135L152 133z"/>
<path style="fill:#ffffff; stroke:none;" d="M115 183L121 178C125.575 191.335 146.165 186.627 151.543 175.996C155.68 167.819 148.72 159.196 148 151L147 151C147 161.155 147.001 170.881 139.671 178.895C135.938 182.978 122.867 188.306 122.867 177.995C122.867 171.363 130.854 171.007 134.255 167.298C136.695 164.635 136.524 160.087 138.809 157C144.659 149.093 153.84 142.527 157 133C148.978 134.265 147.62 143.293 143.181 149C137.874 155.824 131.158 158.538 125.684 164.34C121.018 169.285 118.901 177.265 115 183z"/>
<path style="fill:#a2a2a2; stroke:none;" d="M131 134L132 135L131 134M122 135L123 136L122 135z"/>
<path style="fill:#4b4b4b; stroke:none;" d="M131 135L132 136L131 135z"/>
<path style="fill:#a2a2a2; stroke:none;" d="M156 135L157 136L156 135z"/>
<path style="fill:#6c6c6c; stroke:none;" d="M121 136L122 137L121 136z"/>
<path style="fill:#a2a2a2; stroke:none;" d="M130 136L131 137L130 136M150 136L151 137L150 136z"/>
<path style="fill:#6c6c6c; stroke:none;" d="M149 137L150 138L149 137M155 137L156 138L155 137z"/>
<path style="fill:#a2a2a2; stroke:none;" d="M120 138L121 139L120 138z"/>
<path style="fill:#6c6c6c; stroke:none;" d="M129 138L130 139L129 138z"/>
<path style="fill:#a2a2a2; stroke:none;" d="M154 138L155 139L154 138M148 139L149 140L148 139M153 139L154 140L153 139M119 140L120 141L119 140z"/>
<path style="fill:#4b4b4b; stroke:none;" d="M128 140L129 141L128 140z"/>
<path style="fill:#6c6c6c; stroke:none;" d="M118 141L119 142L118 141z"/>
<path style="fill:#a2a2a2; stroke:none;" d="M127 141L128 142L127 141z"/>
<path style="fill:#4b4b4b; stroke:none;" d="M147 141L148 142L147 141z"/>
<path style="fill:#a2a2a2; stroke:none;" d="M147 142L148 143L147 142M117 143L118 144L117 143z"/>
<path style="fill:#6c6c6c; stroke:none;" d="M126 143L127 144L126 143z"/>
<path style="fill:#4b4b4b; stroke:none;" d="M146 144L147 145L146 144z"/>
<path style="fill:#a2a2a2; stroke:none;" d="M109 145L116 147L116 146L109 145M134 145L124 146L124 147L135 146L134 145z"/>
<path style="fill:#4b4b4b; stroke:none;" d="M108 146L109 147L108 146M134 146L135 147L134 146z"/>
<path style="fill:#a2a2a2; stroke:none;" d="M145 146L146 147L145 146M144 147L145 148L144 147M147 147L144 149L144 150C147.503 150 146 157.039 146 160L147 160L147 147M114 148L115 149L114 148M123 148L124 149L123 148z"/>
<path style="fill:#4b4b4b; stroke:none;" d="M143 148L144 149L143 148z"/>
<path style="fill:#010101; stroke:none;" d="M145 149C140.959 154.362 138.632 162.156 134.644 166.772C131.12 170.85 120.704 172.057 123.622 179.891C126.368 187.264 136.124 182.768 139.671 178.895C146.049 171.931 148.701 157.819 145 149z"/>
<path style="fill:#a2a2a2; stroke:none;" d="M113 150L114 151L113 150z"/>
<path style="fill:#6c6c6c; stroke:none;" d="M122 150L123 151L122 150z"/>
<path style="fill:#4b4b4b; stroke:none;" d="M112 151L113 152L112 151z"/>
<path style="fill:#a2a2a2; stroke:none;" d="M121 151L122 152L121 151M141 151L142 152L141 151z"/>
<path style="fill:#4b4b4b; stroke:none;" d="M143 151L144 152L143 151M121 152L122 153L121 152z"/>
<path style="fill:#a2a2a2; stroke:none;" d="M140 152L141 153L140 152z"/>
<path style="fill:#6c6c6c; stroke:none;" d="M142 152L143 153L142 152z"/>
<path style="fill:#a2a2a2; stroke:none;" d="M111 153L112 154L111 153M120 153L121 154L120 153z"/>
<path style="fill:#6c6c6c; stroke:none;" d="M139 153L140 154L139 153z"/>
<path style="fill:#a2a2a2; stroke:none;" d="M141 153L142 154L141 153z"/>
<path style="fill:#4b4b4b; stroke:none;" d="M148 153L149 154L148 153M138 154L139 155L138 154z"/>
<path style="fill:#a2a2a2; stroke:none;" d="M140 154L141 155L140 154M148.333 154.667L148.667 155.333L148.333 154.667M110 155L111 156L110 155z"/>
<path style="fill:#6c6c6c; stroke:none;" d="M119 155L120 156L119 155z"/>
<path style="fill:#4b4b4b; stroke:none;" d="M109 156L110 157L109 156M118 157L119 158L118 157z"/>
<path style="fill:#a2a2a2; stroke:none;" d="M136 157L137 158L136 157z"/>
<path style="fill:#4b4b4b; stroke:none;" d="M138 157L139 158L138 157z"/>
<path style="fill:#a2a2a2; stroke:none;" d="M149.333 157.667L149.667 158.333L149.333 157.667z"/>
<path style="fill:#6c6c6c; stroke:none;" d="M108 158L109 159L108 158z"/>
<path style="fill:#a2a2a2; stroke:none;" d="M117 158L118 159L117 158M135 158L136 159L135 158z"/>
<path style="fill:#6c6c6c; stroke:none;" d="M137 158L138 159L137 158z"/>
<path style="fill:#4b4b4b; stroke:none;" d="M134 159L135 160L134 159z"/>
<path style="fill:#a2a2a2; stroke:none;" d="M136 159L137 160L136 159M107 160L108 161L107 160M116 160L117 161L116 160M130.667 160.333L131.333 160.667L130.667 160.333M133 160L134 161L133 160M135.333 160.667L135.667 161.333L135.333 160.667z"/>
<path style="fill:#6c6c6c; stroke:none;" d="M146 160L146 164L147 164L146 160z"/>
<path style="fill:#a2a2a2; stroke:none;" d="M150 160L151 161L150 160z"/>
<path style="fill:#4b4b4b; stroke:none;" d="M106 161L107 162L106 161z"/>
<path style="fill:#a2a2a2; stroke:none;" d="M128 161L129 162L128 161z"/>
<path style="fill:#6c6c6c; stroke:none;" d="M115 162L116 163L115 162z"/>
<path style="fill:#a2a2a2; stroke:none;" d="M127 162L128 163L127 162z"/>
<path style="fill:#4b4b4b; stroke:none;" d="M136 162L137 163L136 162z"/>
<path style="fill:#6c6c6c; stroke:none;" d="M151 162L152 163L151 162M105 163L106 164L105 163z"/>
<path style="fill:#a2a2a2; stroke:none;" d="M114 163L115 164L114 163M136.333 163.667L136.667 164.333L136.333 163.667M151 163L152 164L151 163z"/>
<path style="fill:#4b4b4b; stroke:none;" d="M114 164L115 165L114 164z"/>
<path style="fill:#a2a2a2; stroke:none;" d="M125 164L126 165L125 164M146.333 164.667L146.667 165.333L146.333 164.667M104 165L105 166L104 165M113 165L114 166L113 165M124 165L125 166L124 165z"/>
<path style="fill:#4b4b4b; stroke:none;" d="M136 165L137 166L136 165z"/>
<path style="fill:#a2a2a2; stroke:none;" d="M152.333 165.667L152.667 166.333L152.333 165.667z"/>
<path style="fill:#4b4b4b; stroke:none;" d="M103 166L104 167L103 166z"/>
<path style="fill:#6c6c6c; stroke:none;" d="M123 166L124 167L123 166z"/>
<path style="fill:#a2a2a2; stroke:none;" d="M135 166L136 167L135 166M103 167L104 168L103 167M112 167L113 168L112 167z"/>
<path style="fill:#6c6c6c; stroke:none;" d="M102 168L103 169L102 168z"/>
<path style="fill:#a2a2a2; stroke:none;" d="M122 168L123 169L122 168M133 168L134 169L133 168z"/>
<path style="fill:#4b4b4b; stroke:none;" d="M145 168L146 169L145 168M111 169L112 170L111 169z"/>
<path style="fill:#a2a2a2; stroke:none;" d="M130 169L131 170L130 169z"/>
<path style="fill:#4b4b4b; stroke:none;" d="M131 169L132 170L131 169z"/>
<path style="fill:#a2a2a2; stroke:none;" d="M145 169L146 170L145 169z"/>
<path style="fill:#4b4b4b; stroke:none;" d="M153 169L154 170L153 169M101 170L102 171L101 170z"/>
<path style="fill:#a2a2a2; stroke:none;" d="M110 170L111 171L110 170z"/>
<path style="fill:#6c6c6c; stroke:none;" d="M121 170L122 171L121 170z"/>
<path style="fill:#a2a2a2; stroke:none;" d="M127 170L128 171L127 170z"/>
<path style="fill:#6c6c6c; stroke:none;" d="M153 170L154 171L153 170z"/>
<path style="fill:#a2a2a2; stroke:none;" d="M101 171L102 172L101 171M121 171L122 172L121 171z"/>
<path style="fill:#4b4b4b; stroke:none;" d="M126 171L127 172L126 171z"/>
<path style="fill:#6c6c6c; stroke:none;" d="M144 171L145 172L144 171z"/>
<path style="fill:#4b4b4b; stroke:none;" d="M153 171L154 172L153 171z"/>
<path style="fill:#a2a2a2; stroke:none;" d="M109 172L110 173L109 172M100.333 173.667L100.667 174.333L100.333 173.667z"/>
<path style="fill:#4b4b4b; stroke:none;" d="M120 173L121 174L120 173M124 173L125 174L124 173z"/>
<path style="fill:#6c6c6c; stroke:none;" d="M143 173L144 174L143 173M108 174L109 175L108 174M120.333 174.667L120.667 175.333L120.333 174.667z"/>
<path style="fill:#a2a2a2; stroke:none;" d="M123 174L124 175L123 174M152 174L153 175L152 174M142 175L143 176L142 175z"/>
<path style="fill:#4b4b4b; stroke:none;" d="M152 175L153 176L152 175z"/>
<path style="fill:#6c6c6c; stroke:none;" d="M107 176L108 177L107 176z"/>
<path style="fill:#a2a2a2; stroke:none;" d="M122 176L122 180L123 180L122 176z"/>
<path style="fill:#4b4b4b; stroke:none;" d="M141 176L142 177L141 176z"/>
<path style="fill:#a2a2a2; stroke:none;" d="M151 176L152 177L151 176M119 177L120 178L119 177z"/>
<path style="fill:#6c6c6c; stroke:none;" d="M106 178L107 179L106 178z"/>
<path style="fill:#a2a2a2; stroke:none;" d="M118 178L119 179L118 178z"/>
<path style="fill:#4b4b4b; stroke:none;" d="M120 178L121 179L120 178z"/>
<path style="fill:#a2a2a2; stroke:none;" d="M140 178L141 179L140 178z"/>
<path style="fill:#4b4b4b; stroke:none;" d="M150 178L151 179L150 178z"/>
<path style="fill:#a2a2a2; stroke:none;" d="M117 179L118 180L117 179z"/>
<path style="fill:#4b4b4b; stroke:none;" d="M119 179L120 180L119 179z"/>
<path style="fill:#a2a2a2; stroke:none;" d="M139 179L140 180L139 179M149 179L150 180L149 179M100.333 180.667L100.667 181.333L100.333 180.667M105 180L105 183L106 183L105 180M116 180L117 181L116 180z"/>
<path style="fill:#4b4b4b; stroke:none;" d="M118 180L119 181L118 180z"/>
<path style="fill:#a2a2a2; stroke:none;" d="M121 180L122 181L121 180M138 180L139 181L138 180M148 180L149 181L148 180M115 181L116 182L115 181z"/>
<path style="fill:#4b4b4b; stroke:none;" d="M117 181L118 182L117 181M121 181L122 182L121 181z"/>
<path style="fill:#a2a2a2; stroke:none;" d="M123 181L124 182L123 181M137 181L138 182L137 181z"/>
<path style="fill:#4b4b4b; stroke:none;" d="M147 181L148 182L147 181z"/>
<path style="fill:#a2a2a2; stroke:none;" d="M114 182L113 185L114 182M122 182L123 183L122 182M124 182L125 183L124 182z"/>
<path style="fill:#6c6c6c; stroke:none;" d="M135 182L136 183L135 182z"/>
<path style="fill:#a2a2a2; stroke:none;" d="M145 182L146 183L145 182z"/>
<path style="fill:#4b4b4b; stroke:none;" d="M101 183L102 184L101 183M112 183L113 184L112 183z"/>
<path style="fill:#ffffff; stroke:none;" d="M113 183L114 184L113 183z"/>
<path style="fill:#a2a2a2; stroke:none;" d="M123 183L124 184L123 183M125 183L126 184L125 183z"/>
<path style="fill:#4b4b4b; stroke:none;" d="M126 183L127 184L126 183z"/>
<path style="fill:#6c6c6c; stroke:none;" d="M133 183L134 184L133 183M144 183L145 184L144 183z"/>
<path style="fill:#a2a2a2; stroke:none;" d="M102 184L103 185L102 184M106 184L107 185L106 184z"/>
<path style="fill:#4b4b4b; stroke:none;" d="M110 184L111 185L110 184z"/>
<path style="fill:#a2a2a2; stroke:none;" d="M111.333 184.667L111.667 185.333L111.333 184.667z"/>
<path style="fill:#ffffff; stroke:none;" d="M112 184L113 185L112 184z"/>
<path style="fill:#a2a2a2; stroke:none;" d="M124 184L125 185L124 184M128 184L128 185L132 185L128 184M141 184L142 185L141 184z"/>
<path style="fill:#6c6c6c; stroke:none;" d="M142 184L143 185L142 184z"/>
<path style="fill:#4b4b4b; stroke:none;" d="M103 185L104 186L103 185M112 185L113 186L112 185M125 185L126 186L125 185z"/>
<path style="fill:#a2a2a2; stroke:none;" d="M126 185L127 186L126 185M138.667 185.333L139.333 185.667L138.667 185.333z"/>
<path style="fill:#4b4b4b; stroke:none;" d="M140 185L141 186L140 185M105 186L106 187L105 186z"/>
<path style="fill:#a2a2a2; stroke:none;" d="M106 186L106 187L109 187L106 186z"/>
<path style="fill:#6c6c6c; stroke:none;" d="M109 186L110 187L109 186M128 186L129 187L128 186z"/>
<path style="fill:#a2a2a2; stroke:none;" d="M129 186L129 187L135 187L129 186z"/>
<path style="fill:#6c6c6c; stroke:none;" d="M135 186L136 187L135 186z"/>
<path style="fill:#4b4b4b; stroke:none;" d="M136 186L137 187L136 186z"/>
</svg>
